<svg xmlns="http://www.w3.org/2000/svg" viewBox="0 0 15.08 11.02"><defs><style>.cls-1{fill:#fff;}</style></defs><g id="Layer_2" data-name="Layer 2"><g id="Layer_1-2" data-name="Layer 1"><path class="cls-1" d="M15.08,4.7a3.12,3.12,0,0,1-.2.9c-.16.28-.42.63-.69.69-2,.42-2.08,3.08-3.87,3.57-1.12.31-2.34,2.27-3.72.22-.09-.12-1.28.72-2,.75-1.39.06-3,.72-4-.87a3.76,3.76,0,0,1,0-4,34.23,34.23,0,0,1,1.8-3.7A5.82,5.82,0,0,1,4.87,0c.68-.24,1.8.89,2.56.7C10.72-.06,12,3.37,14.55,4,14.77,4,14.9,4.44,15.08,4.7Z"/></g></g></svg>