<svg xmlns="http://www.w3.org/2000/svg" viewBox="0 0 61.56 79.23"><defs><style>.cls-1{fill:#fff;}</style></defs><g id="Layer_2" data-name="Layer 2"><g id="Layer_1-2" data-name="Layer 1"><path class="cls-1" d="M39.42,17.39C48.63,18,52.65,11.27,57,5a49.31,49.31,0,0,1,4.52-5V11.07c-5.78.57-10.84,1.84-9.4,9.53-3.79,2.78-8.28,5-11.24,8.46C31.65,40,22.87,51.3,14.08,62.61c-2.42,3.12-4.21,6.74-6.29,10.14L6.22,74.31,2.06,79.23,0,78.07C2.5,72.47.18,65.65,7.27,61c3.65-2.41,5.21-7.84,8.06-11.66,1.44-1.93,3.6-3.33,5.5-4.9s3.82-2.59,5.36-4.24c3.35-3.6,6-8,9.77-11C40.18,25.74,41.36,22.23,39.42,17.39Z"/></g></g></svg>