<svg xmlns="http://www.w3.org/2000/svg" viewBox="0 0 177.21 64.16"><defs><style>.cls-1{fill:#fff;}</style></defs><g id="Layer_2" data-name="Layer 2"><g id="Layer_1-2" data-name="Layer 1"><path class="cls-1" d="M47.54,5.62l9.45,1L54,14c9.53,0,18.14.12,26.74,0,8.75-.16,17.71.45,26.16-1.29,5.45-1.13,10.15-5.91,15.22-9,2-1.21,4.05-2.27,6.57-3.67,1,12.2,1,12.41,13.11,13,9.74.48,19.51.39,29.27.54h0c1.27.33,2.85.32,3.72,1.1,1.12,1,1.66,2.62,2.44,4-1.37.38-2.77,1.18-4.11,1.09-11.84-.73-23.67-1.87-35.51-2.28-2.74-.1-5.57,2.11-7.88,2l-17.52-1.32c-.33.83-.66,1.66-1,2.49,4.41,7.65,8,15.92,17.13,19.87V42c2.14,5.51.85,12.74,7.91,15.79l-3.18,6.35-10-12.44q-3-6.53-6-13c-3-13.49-12.88-20.51-26.75-19.59-12.4.83-24.87.68-37.24,1.78-10,.88-19.84,3-29.76,4.52-5.68.89-11.33,2.14-17,2.53-5.46.38-7.75-5.35-5.25-14A43.87,43.87,0,0,1,3.26,19c1.49,5.38,3.71,5.31,8.57,2.85,7-3.53,14.79-5.34,22.15-8.13,1.14-.43,1.77-2.2,2.64-3.35C40.3,8.89,46.47,13.1,47.54,5.62Z"/></g></g></svg>