<svg xmlns="http://www.w3.org/2000/svg" viewBox="0 0 121.66 56.67"><defs><style>.cls-1{fill:#fff;}</style></defs><g id="Layer_2" data-name="Layer 2"><g id="Layer_1-2" data-name="Layer 1"><path class="cls-1" d="M1.39,35.31C.93,33.62.46,31.93,0,30.24c1-.1,2.4-.66,2.79-.24C10.62,38.35,21,39.36,31.45,40c1.6.76,3.33,2.27,4.77,2,1.28-.21,3.38-2.72,3.11-3.62-.91-3.09-2.21-6.39-4.39-8.63-.95-1-4.35.44-6.65.76l-.06-14.25c3.65,3.47,6.46,9.05,11.63,5.55,2,3.68,3,8.7,5.66,9.74,3,1.21,7.82-.36,11.22-2C68.18,24,79.3,17.86,90.62,12.06c7.19-3.68,14.45-7.25,21.8-10.58,2.21-1,4.86-1,7.31-1.48l1.93,2.33c-9.25,4.76-18.47,9.55-27.73,14.26C83,22.15,72.14,27.79,61.09,33.06c-4.71,2.25-5.6,5-2.84,9.21a4.27,4.27,0,0,1,1,2.14c-.09,2.9-.37,5.79-.58,8.69l-7.77-1.19c.85-5.19,1.51-9.24,2.17-13.29l-2.32-.57c-.82,2.19-1.65,4.38-2.38,6.3-13-1.57-21.53,9.67-32.94,12.32-.41-.84-.82-1.68-1.24-2.52L26.5,47.09C21,42.48,15.56,40.82,9.31,44.78Z"/></g></g></svg>