<svg xmlns="http://www.w3.org/2000/svg" viewBox="0 0 112.45 109.1"><defs><style>.cls-1{fill:#fff;}</style></defs><g id="Layer_2" data-name="Layer 2"><g id="Layer_1-2" data-name="Layer 1"><path class="cls-1" d="M93.92,44.93c-10-2.59-20.31-4.56-30.08-7.94-8.34-2.89-12-2.49-19.08,5.71,2.83,5.7,7.9,10.56,5.9,18-.43,1.6,1,3.87,1.9,5.61.86,1.57,2.54,2.69,3.37,4.26,1.3,2.44,2.2,5.1,3.27,7.67l5.72-4.1h17.8c-.59-2.48-1-4.08-1.37-5.69L83.2,67l3.54,8.66c3.59-5.8,5.63-9.09,7.85-12.69,1.81,3.63,3.29,6.6,5.06,10.17l6.91-9.33,2,1.17-3.18,8.41,7.08,2-7.1,6.52L83.92,78.53c-.15,1.84-.29,3.67-.45,5.62C71.88,85.59,69.9,88.84,68.76,109.1,55.85,103,53.37,98.92,55.87,88l-4.62.9c5.52-5.43,3.4-9.38-1.53-13,3.57-5,.62-8-3.7-9.18-4.83-1.3-10-1.23-16.6-1.92L34,60.08c.5-1,1-2.06,1.51-3.09l.16-.14a10.26,10.26,0,0,0,1.23-.37l3.44-1.14,1.59-3.18c0-.53,0-1,0-1.58l-7.74-20-3.64,1q1.76,9.48,3.52,19l-3.76,5.06q-3.67-7.25-7.34-14.48l5.92,3.09c-.35-4.57-.63-8.31-.93-12.2-1.2-.24-2.77-.09-3.59-.79-7-6-15.53-3.82-23.54-4.33-1.91-4.23-.13-5.14,3.84-4.46,4.35.75,8.75,1.25,13,1.84l3.73-5.9,5.58,6.76c1.08-.65,2.16-1.3,3.23-2Q26.49,12.71,22.86,2.24L29.26,0C34.67,5.47,30.77,12.31,31,18.19c.32,8.2,3.75,8.13,9.69,8.08,4.07,0,8.17,1.4,12.22,2.33,5.72,1.3,11.45,2.62,17.09,4.19,2,.54,3.68,1.88,6.34,3.29.61-2.5,1.16-4.77,1.9-7.88,1.57,1.29,3.85,2.25,4,3.39.7,7.88,6.26,7,11.5,6.76,3.3-.15,7.4-1.68,6.73,4.32Z"/></g></g></svg>