<svg xmlns="http://www.w3.org/2000/svg" viewBox="0 0 137.72 88.83"><defs><style>.cls-1{fill:#fff;}</style></defs><g id="Layer_2" data-name="Layer 2"><g id="Layer_1-2" data-name="Layer 1"><path class="cls-1" d="M127.73,4.59l-8.45,6.54-1.92-1.47c1.42,3.2,2.84,6.41,4.47,10.07l5.3-2.69c.26,5.43.52,10.83.87,18.11L137.28,29c1.24,7.19.08,9.79-6.1,12.27-4.57,1.83-7.33,3.84-4,9.25,2.68,4.4,0,7.16-4.18,6.08-7-1.81-10.85,1.74-14.58,6.41-4.07,4.42-8.14,5.3-13.57,1.6-2.68-1.83-6.76-1.62-10.18-3.86,5.13.27,10.43,1.46,15.33.52,4-.76,8-3.52,11-6.41,5.56-5.32,10.4-11.38,15.54-17.13-2.27-9.88-10.2-5.14-14.37-4a58.72,58.72,0,0,0-21,10.87c-7.64,6.29-17,8.07-25.32,12.57C56.88,62.08,47.47,66,38.33,70.52c-12.27,6-24.47,12.2-36.7,18.31L0,86.25c3.57-2.66,6.88-5.8,10.75-7.88C22.5,72.05,35,67,46.17,59.77c7.2-4.65,15.37-9.08,19.56-17.47l9.5,0c5.8,1.44,19.12-6.75,20.55-12.64h3.16l12.66-3.17c1.54-1.26,4.52-2.71,4.38-3.76A42.39,42.39,0,0,0,112.57,10c-.75-1.6-4-2.44-6.19-2.85-2.63-.47-5.4-.11-8-1.82l9.6-4L110.58,0c2.33.54,4.65,1.12,7,1.62,3.11.67,6.24,1.27,9.36,1.9C127.2,3.88,127.46,4.24,127.73,4.59Z"/></g></g></svg>